<?xml version="1.0" encoding="UTF-8" standalone="no"?>
<svg
   xmlns:dc="http://purl.org/dc/elements/1.1/"
   xmlns:cc="http://creativecommons.org/ns#"
   xmlns:rdf="http://www.w3.org/1999/02/22-rdf-syntax-ns#"
   xmlns:svg="http://www.w3.org/2000/svg"
   xmlns="http://www.w3.org/2000/svg"
   xmlns:sodipodi="http://sodipodi.sourceforge.net/DTD/sodipodi-0.dtd"
   xmlns:inkscape="http://www.inkscape.org/namespaces/inkscape"
   width="97.108498mm"
   height="68.054207mm"
   viewBox="0 0 97.108501 68.054207"
   version="1.1"
   id="svg922"
   inkscape:version="1.0.1 (3bc2e813f5, 2020-09-07)"
   sodipodi:docname="base_leg.svg">
  <defs
     id="defs916">
    <marker
       id="DistanceX"
       orient="auto"
       refX="0"
       refY="0"
       style="overflow:visible">
      <path
         d="M 3,-3 -3,3 M 0,-5 V 5"
         style="stroke:#000000;stroke-width:0.5"
         id="path831" />
    </marker>
    <pattern
       id="Hatch"
       patternUnits="userSpaceOnUse"
       width="8"
       height="8"
       x="0"
       y="0">
      <path
         d="M8 4 l-4,4"
         stroke="#000000"
         stroke-width="0.25"
         linecap="square"
         id="path834" />
      <path
         d="M6 2 l-4,4"
         stroke="#000000"
         stroke-width="0.25"
         linecap="square"
         id="path836" />
      <path
         d="M4 0 l-4,4"
         stroke="#000000"
         stroke-width="0.25"
         linecap="square"
         id="path838" />
    </pattern>
    <symbol
       id="*MODEL_SPACE" />
    <symbol
       id="*PAPER_SPACE" />
  </defs>
  <sodipodi:namedview
     id="base"
     pagecolor="#ffffff"
     bordercolor="#666666"
     borderopacity="1.0"
     inkscape:pageopacity="0.0"
     inkscape:pageshadow="2"
     inkscape:zoom="1.4"
     inkscape:cx="126.75223"
     inkscape:cy="474.85897"
     inkscape:document-units="mm"
     inkscape:current-layer="layer1"
     inkscape:document-rotation="0"
     showgrid="true"
     showguides="true"
     inkscape:lockguides="true"
     inkscape:window-width="2749"
     inkscape:window-height="2022"
     inkscape:window-x="1075"
     inkscape:window-y="59"
     inkscape:window-maximized="0">
    <inkscape:grid
       type="xygrid"
       id="grid1495"
       units="mm"
       spacingx="10"
       spacingy="10"
       empspacing="10"
       dotted="false"
       originx="155.22867"
       originy="140.00044" />
  </sodipodi:namedview>
  <metadata
     id="metadata919">
    <rdf:RDF>
      <cc:Work
         rdf:about="">
        <dc:format>image/svg+xml</dc:format>
        <dc:type
           rdf:resource="http://purl.org/dc/dcmitype/StillImage" />
        <dc:title />
      </cc:Work>
    </rdf:RDF>
  </metadata>
  <g
     inkscape:label="レイヤー 1"
     inkscape:groupmode="layer"
     id="layer1"
     transform="translate(155.22865,140.00043)">
    <path
       d="m -118.67056,-108.99622 v 6.99997 l -15,-2e-5 v -3.63863 h 1.25 v -2.7 h -1.25 v -1.64999 h -3 v 1.64999 h -1.25 v 2.7 h 1.25 v 3.63863 l -18.50007,-3e-5 -0.008,-25.99994 h 3.00848 v 3 h 33.5 v 6.00001 h 3 v -6.00001 h 27.000001 v -3 h 2.999999 l -1.5e-4,2.99924 h 15.500151 v -13 h 12 v 36.00017 l -15.500001,8e-5 v -3.63892 h 1.25 v -2.69999 h -1.25 v -1.65 h -2.999999 v 1.65 h -1.25 v 2.69999 h 1.25 v 3.63892 l -39.000001,1.9e-4 v -7.00043 z"
       style="fill:none;stroke:#ff0000;stroke-width:0.1;stroke-miterlimit:4;stroke-dasharray:none;stroke-opacity:1"
       id="path847" />
    <path
       d="m -70.170559,-137.391 h -0.187449"
       style="fill:none;stroke:#ff0000;stroke-width:0.1;stroke-miterlimit:4;stroke-dasharray:none;stroke-opacity:1"
       id="path849" />
    <path
       d="m -116.37861,-78.34673 0.16929,0.08377 h 0.37944 l 0.1693,-0.08377 0.16895,-0.126365 0.12637,-0.126709 0.0841,-0.211561 v -0.380841 l -0.0841,-0.167904 -0.12637,-0.168937 -0.16895,-0.126709 -0.1693,-0.0426 -0.21048,-0.0426 -0.33825,0.0852 -0.16896,0.126709 -0.12636,0.168937 -0.0855,0.167904 v 0.380841 l 0.0855,0.211561 0.12636,0.126709 z"
       style="fill:none;stroke:#ff0000;stroke-width:0.1;stroke-miterlimit:4;stroke-dasharray:none;stroke-opacity:1"
       id="path851" />
    <path
       d="m -65.169095,-72.010594 v -6.970077"
       style="fill:none;stroke:#ff0000;stroke-width:0.1;stroke-miterlimit:4;stroke-dasharray:none;stroke-opacity:1"
       id="path853" />
    <path
       d="m -72.138334,-81.218914 h -2.703219"
       style="fill:none;stroke:#ff0000;stroke-width:0.1;stroke-miterlimit:4;stroke-dasharray:none;stroke-opacity:1"
       id="path855" />
    <path
       d="m -88.966625,-78.34673 0.169299,0.08377 h 0.422029 l 0.169304,-0.08377 0.16895,-0.126365 0.08378,-0.126709 0.08518,-0.211561 0.04153,-0.169306 -0.04153,-0.211535 -0.08518,-0.167904 -0.08378,-0.168937 -0.16895,-0.126709 -0.169304,-0.0426 -0.210487,-0.0426 -0.211542,0.0426 -0.169304,0.0426 -0.12636,0.126709 -0.126357,0.168937 -0.08553,0.167904 -0.04118,0.211535 0.04118,0.169306 0.08553,0.211561 z"
       style="fill:none;stroke:#ff0000;stroke-width:0.1;stroke-miterlimit:4;stroke-dasharray:none;stroke-opacity:1"
       id="path857" />
    <path
       d="m -65.169095,-88.948796 -0.0016,-6.047448"
       style="fill:none;stroke:#ff0000;stroke-width:0.1;stroke-miterlimit:4;stroke-dasharray:none;stroke-opacity:1"
       id="path859" />
    <path
       d="m -77.170561,-82.496243 v -2.999978"
       style="fill:none;stroke:#ff0000;stroke-width:0.1;stroke-miterlimit:4;stroke-dasharray:none;stroke-opacity:1"
       id="path861" />
    <path
       d="M -113.67056,-71.997153 V -84.996238"
       style="fill:none;stroke:#ff0000;stroke-width:0.1;stroke-miterlimit:4;stroke-dasharray:none;stroke-opacity:1"
       id="path863" />
    <path
       d="m -74.841553,-86.710526 h 2.703219"
       style="fill:none;stroke:#ff0000;stroke-width:0.1;stroke-miterlimit:4;stroke-dasharray:none;stroke-opacity:1"
       id="path865" />
    <path
       d="m -74.841553,-81.218914 v -1.267831"
       style="fill:none;stroke:#ff0000;stroke-width:0.1;stroke-miterlimit:4;stroke-dasharray:none;stroke-opacity:1"
       id="path867" />
    <path
       d="m -77.170561,-85.496221 2.329008,0.01085"
       style="fill:none;stroke:#ff0000;stroke-width:0.1;stroke-miterlimit:4;stroke-dasharray:none;stroke-opacity:1"
       id="path869" />
    <path
       d="m -65.169095,-78.980671 h -2.998534"
       style="fill:none;stroke:#ff0000;stroke-width:0.1;stroke-miterlimit:4;stroke-dasharray:none;stroke-opacity:1"
       id="path871" />
    <path
       d="m -90.677886,-84.996238 0.0073,13.000011"
       style="fill:none;stroke:#ff0000;stroke-width:0.1;stroke-miterlimit:4;stroke-dasharray:none;stroke-opacity:1"
       id="path873" />
    <path
       d="m -74.841553,-82.486745 -2.329008,-0.0095"
       style="fill:none;stroke:#ff0000;stroke-width:0.1;stroke-miterlimit:4;stroke-dasharray:none;stroke-opacity:1"
       id="path875" />
    <path
       d="m -68.167629,-78.980671 v -3.506074"
       style="fill:none;stroke:#ff0000;stroke-width:0.1;stroke-miterlimit:4;stroke-dasharray:none;stroke-opacity:1"
       id="path877" />
    <path
       d="m -68.167629,-82.486745 h -3.970705"
       style="fill:none;stroke:#ff0000;stroke-width:0.1;stroke-miterlimit:4;stroke-dasharray:none;stroke-opacity:1"
       id="path879" />
    <path
       d="m -72.138334,-86.710526 v 1.225232"
       style="fill:none;stroke:#ff0000;stroke-width:0.1;stroke-miterlimit:4;stroke-dasharray:none;stroke-opacity:1"
       id="path881" />
    <path
       d="m -113.67056,-84.996238 h 22.992674"
       style="fill:none;stroke:#ff0000;stroke-width:0.1;stroke-miterlimit:4;stroke-dasharray:none;stroke-opacity:1"
       id="path883" />
    <path
       d="m -72.138334,-85.485294 h 3.970705"
       style="fill:none;stroke:#ff0000;stroke-width:0.1;stroke-miterlimit:4;stroke-dasharray:none;stroke-opacity:1"
       id="path885" />
    <path
       d="m -74.841553,-85.485294 v -1.225232"
       style="fill:none;stroke:#ff0000;stroke-width:0.1;stroke-miterlimit:4;stroke-dasharray:none;stroke-opacity:1"
       id="path887" />
    <path
       d="m -68.167629,-88.948796 h 2.998534"
       style="fill:none;stroke:#ff0000;stroke-width:0.1;stroke-miterlimit:4;stroke-dasharray:none;stroke-opacity:1"
       id="path889" />
    <path
       d="m -72.138334,-82.486745 v 1.267831"
       style="fill:none;stroke:#ff0000;stroke-width:0.1;stroke-miterlimit:4;stroke-dasharray:none;stroke-opacity:1"
       id="path891" />
    <path
       d="m -68.167629,-85.485294 v -3.463502"
       style="fill:none;stroke:#ff0000;stroke-width:0.1;stroke-miterlimit:4;stroke-dasharray:none;stroke-opacity:1"
       id="path893" />
    <path
       d="m -119.17056,-94.996244 v -2.999978"
       style="fill:none;stroke:#ff0000;stroke-width:0.1;stroke-miterlimit:4;stroke-dasharray:none;stroke-opacity:1"
       id="path895" />
    <path
       d="m -119.17056,-97.996222 h 3"
       style="fill:none;stroke:#ff0000;stroke-width:0.1;stroke-miterlimit:4;stroke-dasharray:none;stroke-opacity:1"
       id="path897" />
    <path
       d="m -116.17056,-97.996222 v 2.999978"
       style="fill:none;stroke:#ff0000;stroke-width:0.1;stroke-miterlimit:4;stroke-dasharray:none;stroke-opacity:1"
       id="path899" />
    <path
       d="m -116.17056,-94.996244 h 50.999999"
       style="fill:none;stroke:#ff0000;stroke-width:0.1;stroke-miterlimit:4;stroke-dasharray:none;stroke-opacity:1"
       id="path901" />
    <path
       d="m -90.67056,-71.996227 25.501465,-0.01429"
       style="fill:none;stroke:#ff0000;stroke-width:0.1;stroke-miterlimit:4;stroke-dasharray:none;stroke-opacity:1"
       id="path903" />
    <path
       d="m -155.16741,-77.996236 -0.011,5.922089"
       style="fill:none;stroke:#ff0000;stroke-width:0.1;stroke-miterlimit:4;stroke-dasharray:none;stroke-opacity:1"
       id="path905" />
    <path
       d="m -119.17056,-94.996244 h -4"
       style="fill:none;stroke:#ff0000;stroke-width:0.1;stroke-miterlimit:4;stroke-dasharray:none;stroke-opacity:1"
       id="path907" />
    <path
       d="m -127.17056,-90.996221 v 5.999983"
       style="fill:none;stroke:#ff0000;stroke-width:0.1;stroke-miterlimit:4;stroke-dasharray:none;stroke-opacity:1"
       id="path909" />
    <path
       d="m -123.17056,-94.996244 a 3.9999999,3.9999999 0 0 0 -4,4.000023"
       style="fill:none;stroke:#ff0000;stroke-width:0.1;stroke-miterlimit:4;stroke-dasharray:none;stroke-opacity:1"
       id="path911" />
    <path
       d="m -124.17056,-79.996222 h 3"
       style="fill:none;stroke:#ff0000;stroke-width:0.1;stroke-miterlimit:4;stroke-dasharray:none;stroke-opacity:1"
       id="path913" />
    <path
       d="m -125.42056,-75.646234 v -2.699993"
       style="fill:none;stroke:#ff0000;stroke-width:0.1;stroke-miterlimit:4;stroke-dasharray:none;stroke-opacity:1"
       id="path915" />
    <path
       d="m -119.92056,-78.346227 v 2.699993"
       style="fill:none;stroke:#ff0000;stroke-width:0.1;stroke-miterlimit:4;stroke-dasharray:none;stroke-opacity:1"
       id="path917" />
    <path
       d="m -124.17056,-71.996227 v -3.650007"
       style="fill:none;stroke:#ff0000;stroke-width:0.1;stroke-miterlimit:4;stroke-dasharray:none;stroke-opacity:1"
       id="path919" />
    <path
       d="m -124.17056,-78.346227 v -1.649995"
       style="fill:none;stroke:#ff0000;stroke-width:0.1;stroke-miterlimit:4;stroke-dasharray:none;stroke-opacity:1"
       id="path921" />
    <path
       d="m -125.42056,-78.346227 h 1.25"
       style="fill:none;stroke:#ff0000;stroke-width:0.1;stroke-miterlimit:4;stroke-dasharray:none;stroke-opacity:1"
       id="path923" />
    <path
       d="m -121.17056,-78.346227 h 1.25"
       style="fill:none;stroke:#ff0000;stroke-width:0.1;stroke-miterlimit:4;stroke-dasharray:none;stroke-opacity:1"
       id="path925" />
    <path
       d="m -121.17056,-79.996222 v 1.649995"
       style="fill:none;stroke:#ff0000;stroke-width:0.1;stroke-miterlimit:4;stroke-dasharray:none;stroke-opacity:1"
       id="path927" />
    <path
       d="m -121.17056,-75.646234 v 3.650007"
       style="fill:none;stroke:#ff0000;stroke-width:0.1;stroke-miterlimit:4;stroke-dasharray:none;stroke-opacity:1"
       id="path929" />
    <path
       d="m -119.92056,-75.646234 h -1.25"
       style="fill:none;stroke:#ff0000;stroke-width:0.1;stroke-miterlimit:4;stroke-dasharray:none;stroke-opacity:1"
       id="path931" />
    <path
       d="m -124.17056,-75.646234 h -1.25"
       style="fill:none;stroke:#ff0000;stroke-width:0.1;stroke-miterlimit:4;stroke-dasharray:none;stroke-opacity:1"
       id="path933" />
    <path
       d="m -155.17839,-72.074147 31.00783,0.05752"
       style="fill:none;stroke:#ff0000;stroke-width:0.1;stroke-miterlimit:4;stroke-dasharray:none;stroke-opacity:1"
       id="path935" />
    <path
       d="m -121.17056,-72.01107 7.5,0.01402"
       style="fill:none;stroke:#ff0000;stroke-width:0.1;stroke-miterlimit:4;stroke-dasharray:none;stroke-opacity:1"
       id="path937" />
    <path
       d="m -155.1674,-77.992029 -1e-5,-0.0042"
       style="fill:none;stroke:#ff0000;stroke-width:0.1;stroke-miterlimit:4;stroke-dasharray:none;stroke-opacity:1"
       id="path939" />
    <path
       d="m -127.17056,-84.996238 v -0.999993"
       style="fill:none;stroke:#ff0000;stroke-width:0.1;stroke-miterlimit:4;stroke-dasharray:none;stroke-opacity:1"
       id="path941" />
    <path
       d="m -151.1674,-81.996234 h 19.99684"
       style="fill:none;stroke:#ff0000;stroke-width:0.1;stroke-miterlimit:4;stroke-dasharray:none;stroke-opacity:1"
       id="path943" />
    <path
       d="m -131.17056,-81.996234 a 3.9999999,3.9999999 0 0 0 4,-3.999997"
       style="fill:none;stroke:#ff0000;stroke-width:0.1;stroke-miterlimit:4;stroke-dasharray:none;stroke-opacity:1"
       id="path945" />
    <path
       d="m -151.1674,-81.996234 a 3.9999999,3.9999999 0 0 0 -4,4.004205"
       style="fill:none;stroke:#ff0000;stroke-width:0.1;stroke-miterlimit:4;stroke-dasharray:none;stroke-opacity:1"
       id="path947" />
    <path
       d="m -61.67056,-135.99623 h -5.000001 v 3 h 5.000001 z"
       style="fill:none;stroke:#ff0000;stroke-width:0.1;stroke-miterlimit:4;stroke-dasharray:none;stroke-opacity:1"
       id="path949" />
    <path
       d="m -115.67056,-113.99624 a 1.5,1.5 0 1 0 -3,0 1.5,1.5 0 1 0 3,0 z"
       style="fill:none;stroke:#ff0000;stroke-width:0.1;stroke-miterlimit:4;stroke-dasharray:none;stroke-opacity:1"
       id="path951" />
    <path
       d="m -148.17056,-76.996244 a 1.5,1.5 0 1 0 -3,0 1.5,1.5 0 1 0 3,0 z"
       style="fill:none;stroke:#ff0000;stroke-width:0.1;stroke-miterlimit:4;stroke-dasharray:none;stroke-opacity:1"
       id="path955" />
  </g>
</svg>
