<?xml version="1.0" encoding="UTF-8" standalone="no"?>
<svg
   xmlns:dc="http://purl.org/dc/elements/1.1/"
   xmlns:cc="http://creativecommons.org/ns#"
   xmlns:rdf="http://www.w3.org/1999/02/22-rdf-syntax-ns#"
   xmlns:svg="http://www.w3.org/2000/svg"
   xmlns="http://www.w3.org/2000/svg"
   xmlns:sodipodi="http://sodipodi.sourceforge.net/DTD/sodipodi-0.dtd"
   xmlns:inkscape="http://www.inkscape.org/namespaces/inkscape"
   width="55.443081mm"
   height="30.005507mm"
   viewBox="0 0 55.443081 30.005507"
   version="1.1"
   id="svg922"
   inkscape:version="1.0.1 (3bc2e813f5, 2020-09-07)"
   sodipodi:docname="eraser_clip.svg">
  <defs
     id="defs916">
    <marker
       id="DistanceX"
       orient="auto"
       refX="0"
       refY="0"
       style="overflow:visible">
      <path
         d="M 3,-3 -3,3 M 0,-5 V 5"
         style="stroke:#000000;stroke-width:0.5"
         id="path831" />
    </marker>
    <pattern
       id="Hatch"
       patternUnits="userSpaceOnUse"
       width="8"
       height="8"
       x="0"
       y="0">
      <path
         d="M8 4 l-4,4"
         stroke="#000000"
         stroke-width="0.25"
         linecap="square"
         id="path834" />
      <path
         d="M6 2 l-4,4"
         stroke="#000000"
         stroke-width="0.25"
         linecap="square"
         id="path836" />
      <path
         d="M4 0 l-4,4"
         stroke="#000000"
         stroke-width="0.25"
         linecap="square"
         id="path838" />
    </pattern>
    <symbol
       id="*MODEL_SPACE" />
    <symbol
       id="*PAPER_SPACE" />
  </defs>
  <sodipodi:namedview
     id="base"
     pagecolor="#ffffff"
     bordercolor="#666666"
     borderopacity="1.0"
     inkscape:pageopacity="0.0"
     inkscape:pageshadow="2"
     inkscape:zoom="1.979899"
     inkscape:cx="167.71153"
     inkscape:cy="97.112889"
     inkscape:document-units="mm"
     inkscape:current-layer="layer1"
     inkscape:document-rotation="0"
     showgrid="true"
     showguides="true"
     inkscape:lockguides="true"
     inkscape:window-width="2419"
     inkscape:window-height="1997"
     inkscape:window-x="1046"
     inkscape:window-y="84"
     inkscape:window-maximized="0">
    <inkscape:grid
       type="xygrid"
       id="grid1495"
       units="mm"
       spacingx="10"
       spacingy="10"
       empspacing="10"
       dotted="false"
       originx="83.641928"
       originy="86.576176" />
  </sodipodi:namedview>
  <metadata
     id="metadata919">
    <rdf:RDF>
      <cc:Work
         rdf:about="">
        <dc:format>image/svg+xml</dc:format>
        <dc:type
           rdf:resource="http://purl.org/dc/dcmitype/StillImage" />
        <dc:title></dc:title>
      </cc:Work>
    </rdf:RDF>
  </metadata>
  <g
     inkscape:label="レイヤー 1"
     inkscape:groupmode="layer"
     id="layer1"
     transform="translate(83.641931,86.576176)">
    <path
       d="m -61.247769,-79.115351 -0.253073,-1.98411 -0.760275,-1.816232 0.210486,-2.999952 0.80287,-0.591317 1.605746,2.070708 1.055944,2.576486 0.336849,2.744417 -0.336849,2.74582 -1.055944,2.533914 -1.605746,2.111878 -2.786993,14.868419 h -4.773933 v -3.379364 h -0.422029 v 3.379364 h -9.587283 v -0.507206 h -2.998885 v 0.717709 l -1.775047,-0.717683 v -1.985539 h 12.671343 v -1.013354 h -12.671343 v -1.985195 l 1.775047,-0.675085 v 0.675085 h 2.998885 v -0.506148 h 3.673631 l -1.266079,-8.871003 -1.606094,-2.111878 -1.055947,-2.533914 -0.379436,-2.74582 0.379436,-2.74439 1.055947,-2.576513 1.606094,-2.070708 0.801463,0.591317 0.211894,2.999952 -0.760283,1.816232 -0.253074,1.98411 0.253074,1.944 0.760283,1.815174 1.182307,1.60573 2.364967,10.897711 h 5.153015 v 3.294195 l 3.210779,-14.191906 1.224899,-1.60573 0.760281,-1.815174 z"
       style="fill:none;stroke:#ff0000;stroke-width:0.1;stroke-miterlimit:4;stroke-dasharray:none;stroke-opacity:1"
       id="path845" />
    <path
       d="m -46.410449,-71.723739 -1.606092,-2.111878 -1.055947,-2.533914 -0.379436,-2.74582 0.379436,-2.74439 1.055947,-2.576513 1.606092,-2.070708 0.801466,0.591317 0.211891,2.999952 -0.76028,1.816232 -0.253077,1.98411 0.253077,1.944 0.76028,1.815174 1.182309,1.60573 2.364968,10.897711 h 5.153011 v 3.294195 l 3.21078,-14.191906 1.224899,-1.60573 0.760283,-1.815174 0.253074,-1.944 -0.253074,-1.98411 -0.760275,-1.816232 0.210484,-2.999952 0.802873,-0.591317 1.605743,2.070708 1.055947,2.576486 0.336846,2.744417 -0.336846,2.74582 -1.055947,2.533914 -1.605743,2.111878 -2.786994,14.868419 h -5.195961 -9.587283 v -0.507206 h -2.998886 v 0.717709 l -1.775047,-0.717683 v -1.985539 h 12.671343 v -1.013354 h -12.671343 v -1.985195 l 1.775047,-0.675085 v 0.675085 h 2.998886 v -0.506148 h 3.673631 z"
       style="fill:none;stroke:#ff0000;stroke-width:0.1;stroke-miterlimit:4;stroke-dasharray:none;stroke-opacity:1"
       id="path859" />
  </g>
</svg>
