M48
; DRILL file {KiCad (5.1.2)-2} date 2021/05/20 0:09:53
; FORMAT={-:-/ absolute / metric / decimal}
; #@! TF.CreationDate,2021-05-20T00:09:53+09:00
; #@! TF.GenerationSoftware,Kicad,Pcbnew,(5.1.2)-2
FMAT,2
METRIC
T1C0.800
T2C1.000
T3C3.200
%
G90
G05
T1
X25.4Y-12.7
X25.4Y-15.24
X25.4Y-17.78
X25.4Y-20.32
X25.4Y-22.86
X25.4Y-25.4
X25.4Y-27.94
X25.4Y-30.48
X25.4Y-33.02
X25.4Y-35.56
X25.4Y-38.1
X25.4Y-40.64
X25.4Y-43.18
X25.4Y-45.72
X25.4Y-48.26
X40.64Y-12.7
X40.64Y-15.24
X40.64Y-17.78
X40.64Y-20.32
X40.64Y-22.86
X40.64Y-25.4
X40.64Y-27.94
X40.64Y-30.48
X40.64Y-33.02
X40.64Y-35.56
X40.64Y-38.1
X40.64Y-40.64
X40.64Y-43.18
X40.64Y-45.72
X40.64Y-48.26
X5.12Y-33.02
X5.12Y-35.56
X5.12Y-38.1
X5.12Y-40.64
X5.12Y-43.18
X10.16Y-50.8
X15.16Y-50.8
T2
X10.215Y-20.56
X12.755Y-20.56
X15.295Y-20.56
X10.215Y-15.24
X12.755Y-15.24
X15.295Y-15.24
X10.215Y-17.78
X12.755Y-17.78
X15.295Y-17.78
T3
X42.0Y-3.0
X42.0Y-57.0
X3.0Y-57.0
X3.0Y-3.0
T0
M30
