G04 #@! TF.GenerationSoftware,KiCad,Pcbnew,(5.1.2)-2*
G04 #@! TF.CreationDate,2021-05-20T00:09:50+09:00*
G04 #@! TF.ProjectId,PlotClock,506c6f74-436c-46f6-936b-2e6b69636164,1*
G04 #@! TF.SameCoordinates,PX5f5e100PY5f5e100*
G04 #@! TF.FileFunction,Copper,L2,Bot*
G04 #@! TF.FilePolarity,Positive*
%FSLAX46Y46*%
G04 Gerber Fmt 4.6, Leading zero omitted, Abs format (unit mm)*
G04 Created by KiCad (PCBNEW (5.1.2)-2) date 2021-05-20 00:09:50*
%MOMM*%
%LPD*%
G04 APERTURE LIST*
%ADD10O,2.400000X1.600000*%
%ADD11R,2.400000X1.600000*%
%ADD12C,1.600000*%
%ADD13O,1.700000X1.700000*%
%ADD14R,1.700000X1.700000*%
%ADD15C,0.600000*%
%ADD16C,0.500000*%
G04 APERTURE END LIST*
D10*
X25400000Y-12700000D03*
X40640000Y-12700000D03*
X25400000Y-48260000D03*
X40640000Y-15240000D03*
X25400000Y-45720000D03*
X40640000Y-17780000D03*
X25400000Y-43180000D03*
X40640000Y-20320000D03*
X25400000Y-40640000D03*
X40640000Y-22860000D03*
X25400000Y-38100000D03*
X40640000Y-25400000D03*
X25400000Y-35560000D03*
X40640000Y-27940000D03*
X25400000Y-33020000D03*
X40640000Y-30480000D03*
X25400000Y-30480000D03*
X40640000Y-33020000D03*
X25400000Y-27940000D03*
X40640000Y-35560000D03*
X25400000Y-25400000D03*
X40640000Y-38100000D03*
X25400000Y-22860000D03*
X40640000Y-40640000D03*
X25400000Y-20320000D03*
X40640000Y-43180000D03*
X25400000Y-17780000D03*
X40640000Y-45720000D03*
X25400000Y-15240000D03*
D11*
X40640000Y-48260000D03*
D12*
X15160000Y-50800000D03*
X10160000Y-50800000D03*
D10*
X5120000Y-43180000D03*
X5120000Y-40640000D03*
X5120000Y-38100000D03*
X5120000Y-35560000D03*
X5120000Y-33020000D03*
D13*
X15295000Y-15240000D03*
X12755000Y-15240000D03*
D14*
X10215000Y-15240000D03*
D13*
X15295000Y-17780000D03*
X12755000Y-17780000D03*
D14*
X10215000Y-17780000D03*
D13*
X15295000Y-20560000D03*
X12755000Y-20560000D03*
D14*
X10215000Y-20560000D03*
D15*
X25400000Y-45720000D02*
X30480000Y-45720000D01*
X30480000Y-45720000D02*
X35560000Y-40640000D01*
X35560000Y-40640000D02*
X40640000Y-40640000D01*
X15160000Y-50800000D02*
X17780000Y-50800000D01*
X17780000Y-50800000D02*
X22860000Y-45720000D01*
X22860000Y-45720000D02*
X25400000Y-45720000D01*
X12620000Y-53340000D02*
X15160000Y-50800000D01*
X7620000Y-53340000D02*
X12620000Y-53340000D01*
X15295000Y-25345000D02*
X12700000Y-27940000D01*
X15295000Y-15240000D02*
X15295000Y-25345000D01*
X12700000Y-27940000D02*
X5080000Y-27940000D01*
X5080000Y-27940000D02*
X2540000Y-30480000D01*
X2540000Y-48260000D02*
X7620000Y-53340000D01*
X2540000Y-33020000D02*
X5120000Y-33020000D01*
X2540000Y-30480000D02*
X2540000Y-33020000D01*
X2540000Y-33020000D02*
X2540000Y-48260000D01*
X22860000Y-30480000D02*
X25400000Y-30480000D01*
X21590000Y-31750000D02*
X22860000Y-30480000D01*
X21590000Y-38100000D02*
X21590000Y-31750000D01*
X5120000Y-40640000D02*
X19050000Y-40640000D01*
X19050000Y-40640000D02*
X21590000Y-38100000D01*
X15810000Y-38100000D02*
X5120000Y-38100000D01*
X17780000Y-38100000D02*
X15810000Y-38100000D01*
X27940000Y-33020000D02*
X27940000Y-10160000D01*
X27940000Y-10160000D02*
X22860000Y-10160000D01*
X22860000Y-10160000D02*
X20320000Y-12700000D01*
X20320000Y-12700000D02*
X20320000Y-35560000D01*
X25400000Y-33020000D02*
X27940000Y-33020000D01*
X20320000Y-35560000D02*
X17780000Y-38100000D01*
X22860000Y-40640000D02*
X25400000Y-40640000D01*
X12755000Y-15240000D02*
X12755000Y-17780000D01*
X12755000Y-17780000D02*
X12755000Y-20560000D01*
X12755000Y-15240000D02*
X12755000Y-10215000D01*
X12755000Y-10215000D02*
X15350000Y-7620000D01*
X15350000Y-7620000D02*
X29210000Y-7620000D01*
X29210000Y-7620000D02*
X30480000Y-8890000D01*
X30480000Y-8890000D02*
X30480000Y-39370000D01*
X29210000Y-40640000D02*
X25400000Y-40640000D01*
X30480000Y-39370000D02*
X29210000Y-40640000D01*
X22860000Y-40640000D02*
X20320000Y-43180000D01*
X20320000Y-43180000D02*
X5080000Y-43180000D01*
X10160000Y-50800000D02*
X10160000Y-43180000D01*
X38100000Y-38100000D02*
X40640000Y-38100000D01*
X33020000Y-33020000D02*
X38100000Y-38100000D01*
X10215000Y-15240000D02*
X10215000Y-10215000D01*
X10160000Y-10160000D02*
X15240000Y-5080000D01*
X10215000Y-10215000D02*
X10160000Y-10160000D01*
X15240000Y-5080000D02*
X30480000Y-5080000D01*
X30480000Y-5080000D02*
X33020000Y-7620000D01*
X33020000Y-7620000D02*
X33020000Y-33020000D01*
X38100000Y-35560000D02*
X40640000Y-35560000D01*
X35560000Y-33020000D02*
X38100000Y-35560000D01*
X7620000Y-17780000D02*
X7620000Y-10160000D01*
X10215000Y-17780000D02*
X7620000Y-17780000D01*
X13970000Y-3810000D02*
X31750000Y-3810000D01*
X31750000Y-3810000D02*
X35560000Y-7620000D01*
X7620000Y-10160000D02*
X13970000Y-3810000D01*
X35560000Y-7620000D02*
X35560000Y-33020000D01*
X5320000Y-20560000D02*
X10215000Y-20560000D01*
X5080000Y-10160000D02*
X5080000Y-20320000D01*
X5080000Y-20320000D02*
X5320000Y-20560000D01*
X40640000Y-33020000D02*
X38100000Y-33020000D01*
X35560000Y-5080000D02*
X33020000Y-2540000D01*
X33020000Y-2540000D02*
X12700000Y-2540000D01*
X12700000Y-2540000D02*
X5080000Y-10160000D01*
X35560000Y-5080000D02*
X38100000Y-7620000D01*
X38100000Y-7620000D02*
X38100000Y-33020000D01*
D16*
G36*
X40438216Y-1096960D02*
G01*
X40096960Y-1438216D01*
X39828838Y-1839490D01*
X39644152Y-2285361D01*
X39550000Y-2758696D01*
X39550000Y-3241304D01*
X39644152Y-3714639D01*
X39828838Y-4160510D01*
X40096960Y-4561784D01*
X40438216Y-4903040D01*
X40839490Y-5171162D01*
X41285361Y-5355848D01*
X41758696Y-5450000D01*
X42241304Y-5450000D01*
X42714639Y-5355848D01*
X43160510Y-5171162D01*
X43561784Y-4903040D01*
X43903040Y-4561784D01*
X44125001Y-4229595D01*
X44125000Y-55770404D01*
X43903040Y-55438216D01*
X43561784Y-55096960D01*
X43160510Y-54828838D01*
X42714639Y-54644152D01*
X42241304Y-54550000D01*
X41758696Y-54550000D01*
X41285361Y-54644152D01*
X40839490Y-54828838D01*
X40438216Y-55096960D01*
X40096960Y-55438216D01*
X39828838Y-55839490D01*
X39644152Y-56285361D01*
X39550000Y-56758696D01*
X39550000Y-57241304D01*
X39644152Y-57714639D01*
X39828838Y-58160510D01*
X40096960Y-58561784D01*
X40438216Y-58903040D01*
X40770404Y-59125000D01*
X4229596Y-59125000D01*
X4561784Y-58903040D01*
X4903040Y-58561784D01*
X5171162Y-58160510D01*
X5355848Y-57714639D01*
X5450000Y-57241304D01*
X5450000Y-56758696D01*
X5355848Y-56285361D01*
X5171162Y-55839490D01*
X4903040Y-55438216D01*
X4561784Y-55096960D01*
X4160510Y-54828838D01*
X3714639Y-54644152D01*
X3241304Y-54550000D01*
X2758696Y-54550000D01*
X2285361Y-54644152D01*
X1839490Y-54828838D01*
X1438216Y-55096960D01*
X1096960Y-55438216D01*
X875000Y-55770404D01*
X875000Y-35560000D01*
X3062017Y-35560000D01*
X3093875Y-35883456D01*
X3188223Y-36194483D01*
X3341438Y-36481126D01*
X3547629Y-36732371D01*
X3666591Y-36830000D01*
X3547629Y-36927629D01*
X3341438Y-37178874D01*
X3188223Y-37465517D01*
X3093875Y-37776544D01*
X3062017Y-38100000D01*
X3093875Y-38423456D01*
X3188223Y-38734483D01*
X3341438Y-39021126D01*
X3547629Y-39272371D01*
X3666591Y-39370000D01*
X3547629Y-39467629D01*
X3341438Y-39718874D01*
X3188223Y-40005517D01*
X3093875Y-40316544D01*
X3062017Y-40640000D01*
X3093875Y-40963456D01*
X3188223Y-41274483D01*
X3341438Y-41561126D01*
X3547629Y-41812371D01*
X3666591Y-41910000D01*
X3547629Y-42007629D01*
X3341438Y-42258874D01*
X3188223Y-42545517D01*
X3093875Y-42856544D01*
X3062017Y-43180000D01*
X3093875Y-43503456D01*
X3188223Y-43814483D01*
X3341438Y-44101126D01*
X3547629Y-44352371D01*
X3798874Y-44558562D01*
X4085517Y-44711777D01*
X4396544Y-44806125D01*
X4638948Y-44830000D01*
X5601052Y-44830000D01*
X5843456Y-44806125D01*
X6154483Y-44711777D01*
X6441126Y-44558562D01*
X6692371Y-44352371D01*
X6710730Y-44330000D01*
X9010001Y-44330000D01*
X9010000Y-49616547D01*
X8878361Y-49748186D01*
X8697789Y-50018432D01*
X8573408Y-50318713D01*
X8510000Y-50637489D01*
X8510000Y-50962511D01*
X8573408Y-51281287D01*
X8697789Y-51581568D01*
X8878361Y-51851814D01*
X9108186Y-52081639D01*
X9378432Y-52262211D01*
X9678713Y-52386592D01*
X9997489Y-52450000D01*
X10322511Y-52450000D01*
X10641287Y-52386592D01*
X10941568Y-52262211D01*
X11211814Y-52081639D01*
X11441639Y-51851814D01*
X11492409Y-51775830D01*
X14189827Y-51775830D01*
X14243039Y-52068894D01*
X14508207Y-52223402D01*
X14798423Y-52323211D01*
X15102534Y-52364483D01*
X15408854Y-52345633D01*
X15705611Y-52267385D01*
X15981399Y-52132746D01*
X16076961Y-52068894D01*
X16130173Y-51775830D01*
X15160000Y-50805657D01*
X14189827Y-51775830D01*
X11492409Y-51775830D01*
X11622211Y-51581568D01*
X11746592Y-51281287D01*
X11810000Y-50962511D01*
X11810000Y-50742534D01*
X13595517Y-50742534D01*
X13614367Y-51048854D01*
X13692615Y-51345611D01*
X13827254Y-51621399D01*
X13891106Y-51716961D01*
X14184170Y-51770173D01*
X15154343Y-50800000D01*
X15165657Y-50800000D01*
X16135830Y-51770173D01*
X16428894Y-51716961D01*
X16583402Y-51451793D01*
X16683211Y-51161577D01*
X16724483Y-50857466D01*
X16705633Y-50551146D01*
X16627385Y-50254389D01*
X16492746Y-49978601D01*
X16428894Y-49883039D01*
X16135830Y-49829827D01*
X15165657Y-50800000D01*
X15154343Y-50800000D01*
X14184170Y-49829827D01*
X13891106Y-49883039D01*
X13736598Y-50148207D01*
X13636789Y-50438423D01*
X13595517Y-50742534D01*
X11810000Y-50742534D01*
X11810000Y-50637489D01*
X11746592Y-50318713D01*
X11622211Y-50018432D01*
X11492410Y-49824170D01*
X14189827Y-49824170D01*
X15160000Y-50794343D01*
X16130173Y-49824170D01*
X16076961Y-49531106D01*
X15811793Y-49376598D01*
X15521577Y-49276789D01*
X15217466Y-49235517D01*
X14911146Y-49254367D01*
X14614389Y-49332615D01*
X14338601Y-49467254D01*
X14243039Y-49531106D01*
X14189827Y-49824170D01*
X11492410Y-49824170D01*
X11441639Y-49748186D01*
X11310000Y-49616547D01*
X11310000Y-48260000D01*
X23342017Y-48260000D01*
X23373875Y-48583456D01*
X23468223Y-48894483D01*
X23621438Y-49181126D01*
X23827629Y-49432371D01*
X24078874Y-49638562D01*
X24365517Y-49791777D01*
X24676544Y-49886125D01*
X24918948Y-49910000D01*
X25881052Y-49910000D01*
X26123456Y-49886125D01*
X26434483Y-49791777D01*
X26721126Y-49638562D01*
X26972371Y-49432371D01*
X27178562Y-49181126D01*
X27331777Y-48894483D01*
X27426125Y-48583456D01*
X27457983Y-48260000D01*
X27426125Y-47936544D01*
X27331777Y-47625517D01*
X27178562Y-47338874D01*
X26972371Y-47087629D01*
X26775017Y-46925665D01*
X26904500Y-46818844D01*
X27097651Y-46582253D01*
X27240934Y-46312526D01*
X27328843Y-46020029D01*
X27338188Y-45967675D01*
X27168494Y-45724000D01*
X25404000Y-45724000D01*
X25404000Y-45744000D01*
X25396000Y-45744000D01*
X25396000Y-45724000D01*
X23631506Y-45724000D01*
X23461812Y-45967675D01*
X23471157Y-46020029D01*
X23559066Y-46312526D01*
X23702349Y-46582253D01*
X23895500Y-46818844D01*
X24024983Y-46925665D01*
X23827629Y-47087629D01*
X23621438Y-47338874D01*
X23468223Y-47625517D01*
X23373875Y-47936544D01*
X23342017Y-48260000D01*
X11310000Y-48260000D01*
X11310000Y-44330000D01*
X20263518Y-44330000D01*
X20320000Y-44335563D01*
X20376482Y-44330000D01*
X20376492Y-44330000D01*
X20545439Y-44313360D01*
X20762215Y-44247602D01*
X20961997Y-44140816D01*
X21137107Y-43997107D01*
X21173124Y-43953220D01*
X23336346Y-41790000D01*
X23809270Y-41790000D01*
X23827629Y-41812371D01*
X23946591Y-41910000D01*
X23827629Y-42007629D01*
X23621438Y-42258874D01*
X23468223Y-42545517D01*
X23373875Y-42856544D01*
X23342017Y-43180000D01*
X23373875Y-43503456D01*
X23468223Y-43814483D01*
X23621438Y-44101126D01*
X23827629Y-44352371D01*
X24024983Y-44514335D01*
X23895500Y-44621156D01*
X23702349Y-44857747D01*
X23559066Y-45127474D01*
X23471157Y-45419971D01*
X23461812Y-45472325D01*
X23631506Y-45716000D01*
X25396000Y-45716000D01*
X25396000Y-45696000D01*
X25404000Y-45696000D01*
X25404000Y-45716000D01*
X27168494Y-45716000D01*
X27338188Y-45472325D01*
X27328843Y-45419971D01*
X27240934Y-45127474D01*
X27097651Y-44857747D01*
X26904500Y-44621156D01*
X26775017Y-44514335D01*
X26972371Y-44352371D01*
X27178562Y-44101126D01*
X27331777Y-43814483D01*
X27426125Y-43503456D01*
X27457983Y-43180000D01*
X38582017Y-43180000D01*
X38613875Y-43503456D01*
X38708223Y-43814483D01*
X38861438Y-44101126D01*
X39067629Y-44352371D01*
X39186591Y-44450000D01*
X39067629Y-44547629D01*
X38861438Y-44798874D01*
X38708223Y-45085517D01*
X38613875Y-45396544D01*
X38582017Y-45720000D01*
X38613875Y-46043456D01*
X38708223Y-46354483D01*
X38861438Y-46641126D01*
X38956619Y-46757105D01*
X38836052Y-46856052D01*
X38729832Y-46985481D01*
X38650903Y-47133145D01*
X38602300Y-47293371D01*
X38585888Y-47460000D01*
X38585888Y-49060000D01*
X38602300Y-49226629D01*
X38650903Y-49386855D01*
X38729832Y-49534519D01*
X38836052Y-49663948D01*
X38965481Y-49770168D01*
X39113145Y-49849097D01*
X39273371Y-49897700D01*
X39440000Y-49914112D01*
X41840000Y-49914112D01*
X42006629Y-49897700D01*
X42166855Y-49849097D01*
X42314519Y-49770168D01*
X42443948Y-49663948D01*
X42550168Y-49534519D01*
X42629097Y-49386855D01*
X42677700Y-49226629D01*
X42694112Y-49060000D01*
X42694112Y-47460000D01*
X42677700Y-47293371D01*
X42629097Y-47133145D01*
X42550168Y-46985481D01*
X42443948Y-46856052D01*
X42323381Y-46757105D01*
X42418562Y-46641126D01*
X42571777Y-46354483D01*
X42666125Y-46043456D01*
X42697983Y-45720000D01*
X42666125Y-45396544D01*
X42571777Y-45085517D01*
X42418562Y-44798874D01*
X42212371Y-44547629D01*
X42093409Y-44450000D01*
X42212371Y-44352371D01*
X42418562Y-44101126D01*
X42571777Y-43814483D01*
X42666125Y-43503456D01*
X42697983Y-43180000D01*
X42666125Y-42856544D01*
X42571777Y-42545517D01*
X42418562Y-42258874D01*
X42212371Y-42007629D01*
X42015017Y-41845665D01*
X42144500Y-41738844D01*
X42337651Y-41502253D01*
X42480934Y-41232526D01*
X42568843Y-40940029D01*
X42578188Y-40887675D01*
X42408494Y-40644000D01*
X40644000Y-40644000D01*
X40644000Y-40664000D01*
X40636000Y-40664000D01*
X40636000Y-40644000D01*
X38871506Y-40644000D01*
X38701812Y-40887675D01*
X38711157Y-40940029D01*
X38799066Y-41232526D01*
X38942349Y-41502253D01*
X39135500Y-41738844D01*
X39264983Y-41845665D01*
X39067629Y-42007629D01*
X38861438Y-42258874D01*
X38708223Y-42545517D01*
X38613875Y-42856544D01*
X38582017Y-43180000D01*
X27457983Y-43180000D01*
X27426125Y-42856544D01*
X27331777Y-42545517D01*
X27178562Y-42258874D01*
X26972371Y-42007629D01*
X26853409Y-41910000D01*
X26972371Y-41812371D01*
X26990730Y-41790000D01*
X29153518Y-41790000D01*
X29210000Y-41795563D01*
X29266482Y-41790000D01*
X29266492Y-41790000D01*
X29435439Y-41773360D01*
X29652215Y-41707602D01*
X29851997Y-41600816D01*
X30027107Y-41457107D01*
X30063124Y-41413220D01*
X31253230Y-40223116D01*
X31297107Y-40187107D01*
X31440816Y-40011997D01*
X31547602Y-39812215D01*
X31613360Y-39595439D01*
X31630000Y-39426492D01*
X31630000Y-39426483D01*
X31635563Y-39370001D01*
X31630000Y-39313519D01*
X31630000Y-8946481D01*
X31635563Y-8889999D01*
X31630000Y-8833517D01*
X31630000Y-8833508D01*
X31613360Y-8664561D01*
X31547602Y-8447785D01*
X31440816Y-8248003D01*
X31297107Y-8072893D01*
X31253231Y-8036885D01*
X30063124Y-6846780D01*
X30027107Y-6802893D01*
X29851997Y-6659184D01*
X29652215Y-6552398D01*
X29435439Y-6486640D01*
X29266492Y-6470000D01*
X29266482Y-6470000D01*
X29210000Y-6464437D01*
X29153518Y-6470000D01*
X15476345Y-6470000D01*
X15716345Y-6230000D01*
X30003656Y-6230000D01*
X31870000Y-8096346D01*
X31870001Y-32963508D01*
X31864437Y-33020000D01*
X31870001Y-33076491D01*
X31870001Y-33076492D01*
X31886641Y-33245439D01*
X31952399Y-33462215D01*
X32059185Y-33661997D01*
X32202894Y-33837107D01*
X32246776Y-33873120D01*
X37246880Y-38873225D01*
X37282893Y-38917107D01*
X37326773Y-38953118D01*
X37458002Y-39060816D01*
X37497635Y-39082000D01*
X37657785Y-39167602D01*
X37808802Y-39213412D01*
X37874560Y-39233360D01*
X37894164Y-39235291D01*
X38043508Y-39250000D01*
X38043516Y-39250000D01*
X38100000Y-39255563D01*
X38156484Y-39250000D01*
X39049270Y-39250000D01*
X39067629Y-39272371D01*
X39264983Y-39434335D01*
X39135500Y-39541156D01*
X38942349Y-39777747D01*
X38799066Y-40047474D01*
X38711157Y-40339971D01*
X38701812Y-40392325D01*
X38871506Y-40636000D01*
X40636000Y-40636000D01*
X40636000Y-40616000D01*
X40644000Y-40616000D01*
X40644000Y-40636000D01*
X42408494Y-40636000D01*
X42578188Y-40392325D01*
X42568843Y-40339971D01*
X42480934Y-40047474D01*
X42337651Y-39777747D01*
X42144500Y-39541156D01*
X42015017Y-39434335D01*
X42212371Y-39272371D01*
X42418562Y-39021126D01*
X42571777Y-38734483D01*
X42666125Y-38423456D01*
X42697983Y-38100000D01*
X42666125Y-37776544D01*
X42571777Y-37465517D01*
X42418562Y-37178874D01*
X42212371Y-36927629D01*
X42093409Y-36830000D01*
X42212371Y-36732371D01*
X42418562Y-36481126D01*
X42571777Y-36194483D01*
X42666125Y-35883456D01*
X42697983Y-35560000D01*
X42666125Y-35236544D01*
X42571777Y-34925517D01*
X42418562Y-34638874D01*
X42212371Y-34387629D01*
X42093409Y-34290000D01*
X42212371Y-34192371D01*
X42418562Y-33941126D01*
X42571777Y-33654483D01*
X42666125Y-33343456D01*
X42697983Y-33020000D01*
X42666125Y-32696544D01*
X42571777Y-32385517D01*
X42418562Y-32098874D01*
X42212371Y-31847629D01*
X42093409Y-31750000D01*
X42212371Y-31652371D01*
X42418562Y-31401126D01*
X42571777Y-31114483D01*
X42666125Y-30803456D01*
X42697983Y-30480000D01*
X42666125Y-30156544D01*
X42571777Y-29845517D01*
X42418562Y-29558874D01*
X42212371Y-29307629D01*
X42093409Y-29210000D01*
X42212371Y-29112371D01*
X42418562Y-28861126D01*
X42571777Y-28574483D01*
X42666125Y-28263456D01*
X42697983Y-27940000D01*
X42666125Y-27616544D01*
X42571777Y-27305517D01*
X42418562Y-27018874D01*
X42212371Y-26767629D01*
X42093409Y-26670000D01*
X42212371Y-26572371D01*
X42418562Y-26321126D01*
X42571777Y-26034483D01*
X42666125Y-25723456D01*
X42697983Y-25400000D01*
X42666125Y-25076544D01*
X42571777Y-24765517D01*
X42418562Y-24478874D01*
X42212371Y-24227629D01*
X42093409Y-24130000D01*
X42212371Y-24032371D01*
X42418562Y-23781126D01*
X42571777Y-23494483D01*
X42666125Y-23183456D01*
X42697983Y-22860000D01*
X42666125Y-22536544D01*
X42571777Y-22225517D01*
X42418562Y-21938874D01*
X42212371Y-21687629D01*
X42093409Y-21590000D01*
X42212371Y-21492371D01*
X42418562Y-21241126D01*
X42571777Y-20954483D01*
X42666125Y-20643456D01*
X42697983Y-20320000D01*
X42666125Y-19996544D01*
X42571777Y-19685517D01*
X42418562Y-19398874D01*
X42212371Y-19147629D01*
X42093409Y-19050000D01*
X42212371Y-18952371D01*
X42418562Y-18701126D01*
X42571777Y-18414483D01*
X42666125Y-18103456D01*
X42697983Y-17780000D01*
X42666125Y-17456544D01*
X42571777Y-17145517D01*
X42418562Y-16858874D01*
X42212371Y-16607629D01*
X42093409Y-16510000D01*
X42212371Y-16412371D01*
X42418562Y-16161126D01*
X42571777Y-15874483D01*
X42666125Y-15563456D01*
X42697983Y-15240000D01*
X42666125Y-14916544D01*
X42571777Y-14605517D01*
X42418562Y-14318874D01*
X42212371Y-14067629D01*
X42093409Y-13970000D01*
X42212371Y-13872371D01*
X42418562Y-13621126D01*
X42571777Y-13334483D01*
X42666125Y-13023456D01*
X42697983Y-12700000D01*
X42666125Y-12376544D01*
X42571777Y-12065517D01*
X42418562Y-11778874D01*
X42212371Y-11527629D01*
X41961126Y-11321438D01*
X41674483Y-11168223D01*
X41363456Y-11073875D01*
X41121052Y-11050000D01*
X40158948Y-11050000D01*
X39916544Y-11073875D01*
X39605517Y-11168223D01*
X39318874Y-11321438D01*
X39250000Y-11377961D01*
X39250000Y-7676481D01*
X39255563Y-7619999D01*
X39250000Y-7563517D01*
X39250000Y-7563508D01*
X39233360Y-7394561D01*
X39167602Y-7177785D01*
X39060816Y-6978003D01*
X39030183Y-6940676D01*
X38953118Y-6846772D01*
X38953115Y-6846769D01*
X38917107Y-6802893D01*
X38873231Y-6766885D01*
X36413127Y-4306783D01*
X36413118Y-4306772D01*
X33873124Y-1766780D01*
X33837107Y-1722893D01*
X33661997Y-1579184D01*
X33462215Y-1472398D01*
X33245439Y-1406640D01*
X33076492Y-1390000D01*
X33076482Y-1390000D01*
X33020000Y-1384437D01*
X32963518Y-1390000D01*
X12756481Y-1390000D01*
X12699999Y-1384437D01*
X12643517Y-1390000D01*
X12643508Y-1390000D01*
X12474561Y-1406640D01*
X12257785Y-1472398D01*
X12058003Y-1579184D01*
X12058001Y-1579185D01*
X12058002Y-1579185D01*
X11926772Y-1686882D01*
X11926769Y-1686885D01*
X11882893Y-1722893D01*
X11846884Y-1766770D01*
X4306781Y-9306875D01*
X4262893Y-9342893D01*
X4119184Y-9518004D01*
X4012398Y-9717786D01*
X3946640Y-9934562D01*
X3930000Y-10103509D01*
X3930000Y-10103518D01*
X3924437Y-10160000D01*
X3930000Y-10216482D01*
X3930001Y-20263508D01*
X3924437Y-20320000D01*
X3930001Y-20376492D01*
X3946641Y-20545439D01*
X4012399Y-20762215D01*
X4119185Y-20961997D01*
X4262894Y-21137107D01*
X4306775Y-21173119D01*
X4466879Y-21333224D01*
X4502893Y-21377107D01*
X4678003Y-21520816D01*
X4877785Y-21627602D01*
X5094561Y-21693360D01*
X5263508Y-21710000D01*
X5263517Y-21710000D01*
X5319999Y-21715563D01*
X5376481Y-21710000D01*
X8567757Y-21710000D01*
X8575903Y-21736855D01*
X8654832Y-21884519D01*
X8761052Y-22013948D01*
X8890481Y-22120168D01*
X9038145Y-22199097D01*
X9198371Y-22247700D01*
X9365000Y-22264112D01*
X11065000Y-22264112D01*
X11231629Y-22247700D01*
X11391855Y-22199097D01*
X11539519Y-22120168D01*
X11668948Y-22013948D01*
X11740572Y-21926674D01*
X11805961Y-21980337D01*
X12101291Y-22138194D01*
X12421742Y-22235402D01*
X12671490Y-22260000D01*
X12838510Y-22260000D01*
X13088258Y-22235402D01*
X13408709Y-22138194D01*
X13704039Y-21980337D01*
X13962897Y-21767897D01*
X14087618Y-21615924D01*
X14116929Y-21654446D01*
X14353081Y-21863247D01*
X14625431Y-22021965D01*
X14923512Y-22124500D01*
X15039503Y-22147572D01*
X15291000Y-21978494D01*
X15291000Y-20564000D01*
X15299000Y-20564000D01*
X15299000Y-21978494D01*
X15550497Y-22147572D01*
X15666488Y-22124500D01*
X15964569Y-22021965D01*
X16236919Y-21863247D01*
X16473071Y-21654446D01*
X16663950Y-21403586D01*
X16802222Y-21120308D01*
X16882572Y-20815497D01*
X16713495Y-20564000D01*
X15299000Y-20564000D01*
X15291000Y-20564000D01*
X15271000Y-20564000D01*
X15271000Y-20556000D01*
X15291000Y-20556000D01*
X15291000Y-17784000D01*
X15299000Y-17784000D01*
X15299000Y-20556000D01*
X16713495Y-20556000D01*
X16882572Y-20304503D01*
X16802222Y-19999692D01*
X16663950Y-19716414D01*
X16473071Y-19465554D01*
X16236919Y-19256753D01*
X16088056Y-19170000D01*
X16236919Y-19083247D01*
X16473071Y-18874446D01*
X16663950Y-18623586D01*
X16802222Y-18340308D01*
X16882572Y-18035497D01*
X16713495Y-17784000D01*
X15299000Y-17784000D01*
X15291000Y-17784000D01*
X15271000Y-17784000D01*
X15271000Y-17776000D01*
X15291000Y-17776000D01*
X15291000Y-15244000D01*
X15299000Y-15244000D01*
X15299000Y-17776000D01*
X16713495Y-17776000D01*
X16882572Y-17524503D01*
X16802222Y-17219692D01*
X16663950Y-16936414D01*
X16473071Y-16685554D01*
X16274521Y-16510000D01*
X16473071Y-16334446D01*
X16663950Y-16083586D01*
X16802222Y-15800308D01*
X16882572Y-15495497D01*
X16713495Y-15244000D01*
X15299000Y-15244000D01*
X15291000Y-15244000D01*
X15271000Y-15244000D01*
X15271000Y-15236000D01*
X15291000Y-15236000D01*
X15291000Y-13821506D01*
X15299000Y-13821506D01*
X15299000Y-15236000D01*
X16713495Y-15236000D01*
X16882572Y-14984503D01*
X16802222Y-14679692D01*
X16663950Y-14396414D01*
X16473071Y-14145554D01*
X16236919Y-13936753D01*
X15964569Y-13778035D01*
X15666488Y-13675500D01*
X15550497Y-13652428D01*
X15299000Y-13821506D01*
X15291000Y-13821506D01*
X15039503Y-13652428D01*
X14923512Y-13675500D01*
X14625431Y-13778035D01*
X14353081Y-13936753D01*
X14116929Y-14145554D01*
X14087618Y-14184076D01*
X13962897Y-14032103D01*
X13905000Y-13984588D01*
X13905000Y-10691344D01*
X15826346Y-8770000D01*
X28733655Y-8770000D01*
X29330000Y-9366345D01*
X29330001Y-38893654D01*
X28733655Y-39490000D01*
X26990730Y-39490000D01*
X26972371Y-39467629D01*
X26853409Y-39370000D01*
X26972371Y-39272371D01*
X27178562Y-39021126D01*
X27331777Y-38734483D01*
X27426125Y-38423456D01*
X27457983Y-38100000D01*
X27426125Y-37776544D01*
X27331777Y-37465517D01*
X27178562Y-37178874D01*
X26972371Y-36927629D01*
X26853409Y-36830000D01*
X26972371Y-36732371D01*
X27178562Y-36481126D01*
X27331777Y-36194483D01*
X27426125Y-35883456D01*
X27457983Y-35560000D01*
X27426125Y-35236544D01*
X27331777Y-34925517D01*
X27178562Y-34638874D01*
X26972371Y-34387629D01*
X26853409Y-34290000D01*
X26972371Y-34192371D01*
X26990730Y-34170000D01*
X27883508Y-34170000D01*
X27940000Y-34175564D01*
X27996491Y-34170000D01*
X27996492Y-34170000D01*
X28165439Y-34153360D01*
X28382215Y-34087602D01*
X28581997Y-33980816D01*
X28757107Y-33837107D01*
X28900816Y-33661997D01*
X29007602Y-33462215D01*
X29073360Y-33245439D01*
X29095564Y-33020000D01*
X29090000Y-32963508D01*
X29090000Y-10216492D01*
X29095564Y-10160000D01*
X29073360Y-9934561D01*
X29007602Y-9717785D01*
X28900816Y-9518003D01*
X28757107Y-9342893D01*
X28581997Y-9199184D01*
X28382215Y-9092398D01*
X28165439Y-9026640D01*
X27996492Y-9010000D01*
X27940000Y-9004436D01*
X27883509Y-9010000D01*
X22916481Y-9010000D01*
X22859999Y-9004437D01*
X22803517Y-9010000D01*
X22803508Y-9010000D01*
X22634561Y-9026640D01*
X22417785Y-9092398D01*
X22218003Y-9199184D01*
X22218001Y-9199185D01*
X22218002Y-9199185D01*
X22086772Y-9306882D01*
X22086769Y-9306885D01*
X22042893Y-9342893D01*
X22006884Y-9386770D01*
X19546780Y-11846876D01*
X19502893Y-11882893D01*
X19359184Y-12058004D01*
X19252398Y-12257786D01*
X19186640Y-12474562D01*
X19170000Y-12643509D01*
X19170000Y-12643518D01*
X19164437Y-12700000D01*
X19170000Y-12756482D01*
X19170001Y-35083653D01*
X17303656Y-36950000D01*
X6710730Y-36950000D01*
X6692371Y-36927629D01*
X6573409Y-36830000D01*
X6692371Y-36732371D01*
X6898562Y-36481126D01*
X7051777Y-36194483D01*
X7146125Y-35883456D01*
X7177983Y-35560000D01*
X7146125Y-35236544D01*
X7051777Y-34925517D01*
X6898562Y-34638874D01*
X6692371Y-34387629D01*
X6495017Y-34225665D01*
X6624500Y-34118844D01*
X6817651Y-33882253D01*
X6960934Y-33612526D01*
X7048843Y-33320029D01*
X7058188Y-33267675D01*
X6888494Y-33024000D01*
X5124000Y-33024000D01*
X5124000Y-33044000D01*
X5116000Y-33044000D01*
X5116000Y-33024000D01*
X3351506Y-33024000D01*
X3181812Y-33267675D01*
X3191157Y-33320029D01*
X3279066Y-33612526D01*
X3422349Y-33882253D01*
X3615500Y-34118844D01*
X3744983Y-34225665D01*
X3547629Y-34387629D01*
X3341438Y-34638874D01*
X3188223Y-34925517D01*
X3093875Y-35236544D01*
X3062017Y-35560000D01*
X875000Y-35560000D01*
X875000Y-32772325D01*
X3181812Y-32772325D01*
X3351506Y-33016000D01*
X5116000Y-33016000D01*
X5116000Y-31462000D01*
X5124000Y-31462000D01*
X5124000Y-33016000D01*
X6888494Y-33016000D01*
X7058188Y-32772325D01*
X7048843Y-32719971D01*
X6960934Y-32427474D01*
X6817651Y-32157747D01*
X6624500Y-31921156D01*
X6388904Y-31726793D01*
X6119916Y-31582127D01*
X5827874Y-31492717D01*
X5524000Y-31462000D01*
X5124000Y-31462000D01*
X5116000Y-31462000D01*
X4716000Y-31462000D01*
X4412126Y-31492717D01*
X4120084Y-31582127D01*
X3851096Y-31726793D01*
X3615500Y-31921156D01*
X3422349Y-32157747D01*
X3279066Y-32427474D01*
X3191157Y-32719971D01*
X3181812Y-32772325D01*
X875000Y-32772325D01*
X875000Y-4229596D01*
X1096960Y-4561784D01*
X1438216Y-4903040D01*
X1839490Y-5171162D01*
X2285361Y-5355848D01*
X2758696Y-5450000D01*
X3241304Y-5450000D01*
X3714639Y-5355848D01*
X4160510Y-5171162D01*
X4561784Y-4903040D01*
X4903040Y-4561784D01*
X5171162Y-4160510D01*
X5355848Y-3714639D01*
X5450000Y-3241304D01*
X5450000Y-2758696D01*
X5355848Y-2285361D01*
X5171162Y-1839490D01*
X4903040Y-1438216D01*
X4561784Y-1096960D01*
X4229596Y-875000D01*
X40770404Y-875000D01*
X40438216Y-1096960D01*
X40438216Y-1096960D01*
G37*
X40438216Y-1096960D02*
X40096960Y-1438216D01*
X39828838Y-1839490D01*
X39644152Y-2285361D01*
X39550000Y-2758696D01*
X39550000Y-3241304D01*
X39644152Y-3714639D01*
X39828838Y-4160510D01*
X40096960Y-4561784D01*
X40438216Y-4903040D01*
X40839490Y-5171162D01*
X41285361Y-5355848D01*
X41758696Y-5450000D01*
X42241304Y-5450000D01*
X42714639Y-5355848D01*
X43160510Y-5171162D01*
X43561784Y-4903040D01*
X43903040Y-4561784D01*
X44125001Y-4229595D01*
X44125000Y-55770404D01*
X43903040Y-55438216D01*
X43561784Y-55096960D01*
X43160510Y-54828838D01*
X42714639Y-54644152D01*
X42241304Y-54550000D01*
X41758696Y-54550000D01*
X41285361Y-54644152D01*
X40839490Y-54828838D01*
X40438216Y-55096960D01*
X40096960Y-55438216D01*
X39828838Y-55839490D01*
X39644152Y-56285361D01*
X39550000Y-56758696D01*
X39550000Y-57241304D01*
X39644152Y-57714639D01*
X39828838Y-58160510D01*
X40096960Y-58561784D01*
X40438216Y-58903040D01*
X40770404Y-59125000D01*
X4229596Y-59125000D01*
X4561784Y-58903040D01*
X4903040Y-58561784D01*
X5171162Y-58160510D01*
X5355848Y-57714639D01*
X5450000Y-57241304D01*
X5450000Y-56758696D01*
X5355848Y-56285361D01*
X5171162Y-55839490D01*
X4903040Y-55438216D01*
X4561784Y-55096960D01*
X4160510Y-54828838D01*
X3714639Y-54644152D01*
X3241304Y-54550000D01*
X2758696Y-54550000D01*
X2285361Y-54644152D01*
X1839490Y-54828838D01*
X1438216Y-55096960D01*
X1096960Y-55438216D01*
X875000Y-55770404D01*
X875000Y-35560000D01*
X3062017Y-35560000D01*
X3093875Y-35883456D01*
X3188223Y-36194483D01*
X3341438Y-36481126D01*
X3547629Y-36732371D01*
X3666591Y-36830000D01*
X3547629Y-36927629D01*
X3341438Y-37178874D01*
X3188223Y-37465517D01*
X3093875Y-37776544D01*
X3062017Y-38100000D01*
X3093875Y-38423456D01*
X3188223Y-38734483D01*
X3341438Y-39021126D01*
X3547629Y-39272371D01*
X3666591Y-39370000D01*
X3547629Y-39467629D01*
X3341438Y-39718874D01*
X3188223Y-40005517D01*
X3093875Y-40316544D01*
X3062017Y-40640000D01*
X3093875Y-40963456D01*
X3188223Y-41274483D01*
X3341438Y-41561126D01*
X3547629Y-41812371D01*
X3666591Y-41910000D01*
X3547629Y-42007629D01*
X3341438Y-42258874D01*
X3188223Y-42545517D01*
X3093875Y-42856544D01*
X3062017Y-43180000D01*
X3093875Y-43503456D01*
X3188223Y-43814483D01*
X3341438Y-44101126D01*
X3547629Y-44352371D01*
X3798874Y-44558562D01*
X4085517Y-44711777D01*
X4396544Y-44806125D01*
X4638948Y-44830000D01*
X5601052Y-44830000D01*
X5843456Y-44806125D01*
X6154483Y-44711777D01*
X6441126Y-44558562D01*
X6692371Y-44352371D01*
X6710730Y-44330000D01*
X9010001Y-44330000D01*
X9010000Y-49616547D01*
X8878361Y-49748186D01*
X8697789Y-50018432D01*
X8573408Y-50318713D01*
X8510000Y-50637489D01*
X8510000Y-50962511D01*
X8573408Y-51281287D01*
X8697789Y-51581568D01*
X8878361Y-51851814D01*
X9108186Y-52081639D01*
X9378432Y-52262211D01*
X9678713Y-52386592D01*
X9997489Y-52450000D01*
X10322511Y-52450000D01*
X10641287Y-52386592D01*
X10941568Y-52262211D01*
X11211814Y-52081639D01*
X11441639Y-51851814D01*
X11492409Y-51775830D01*
X14189827Y-51775830D01*
X14243039Y-52068894D01*
X14508207Y-52223402D01*
X14798423Y-52323211D01*
X15102534Y-52364483D01*
X15408854Y-52345633D01*
X15705611Y-52267385D01*
X15981399Y-52132746D01*
X16076961Y-52068894D01*
X16130173Y-51775830D01*
X15160000Y-50805657D01*
X14189827Y-51775830D01*
X11492409Y-51775830D01*
X11622211Y-51581568D01*
X11746592Y-51281287D01*
X11810000Y-50962511D01*
X11810000Y-50742534D01*
X13595517Y-50742534D01*
X13614367Y-51048854D01*
X13692615Y-51345611D01*
X13827254Y-51621399D01*
X13891106Y-51716961D01*
X14184170Y-51770173D01*
X15154343Y-50800000D01*
X15165657Y-50800000D01*
X16135830Y-51770173D01*
X16428894Y-51716961D01*
X16583402Y-51451793D01*
X16683211Y-51161577D01*
X16724483Y-50857466D01*
X16705633Y-50551146D01*
X16627385Y-50254389D01*
X16492746Y-49978601D01*
X16428894Y-49883039D01*
X16135830Y-49829827D01*
X15165657Y-50800000D01*
X15154343Y-50800000D01*
X14184170Y-49829827D01*
X13891106Y-49883039D01*
X13736598Y-50148207D01*
X13636789Y-50438423D01*
X13595517Y-50742534D01*
X11810000Y-50742534D01*
X11810000Y-50637489D01*
X11746592Y-50318713D01*
X11622211Y-50018432D01*
X11492410Y-49824170D01*
X14189827Y-49824170D01*
X15160000Y-50794343D01*
X16130173Y-49824170D01*
X16076961Y-49531106D01*
X15811793Y-49376598D01*
X15521577Y-49276789D01*
X15217466Y-49235517D01*
X14911146Y-49254367D01*
X14614389Y-49332615D01*
X14338601Y-49467254D01*
X14243039Y-49531106D01*
X14189827Y-49824170D01*
X11492410Y-49824170D01*
X11441639Y-49748186D01*
X11310000Y-49616547D01*
X11310000Y-48260000D01*
X23342017Y-48260000D01*
X23373875Y-48583456D01*
X23468223Y-48894483D01*
X23621438Y-49181126D01*
X23827629Y-49432371D01*
X24078874Y-49638562D01*
X24365517Y-49791777D01*
X24676544Y-49886125D01*
X24918948Y-49910000D01*
X25881052Y-49910000D01*
X26123456Y-49886125D01*
X26434483Y-49791777D01*
X26721126Y-49638562D01*
X26972371Y-49432371D01*
X27178562Y-49181126D01*
X27331777Y-48894483D01*
X27426125Y-48583456D01*
X27457983Y-48260000D01*
X27426125Y-47936544D01*
X27331777Y-47625517D01*
X27178562Y-47338874D01*
X26972371Y-47087629D01*
X26775017Y-46925665D01*
X26904500Y-46818844D01*
X27097651Y-46582253D01*
X27240934Y-46312526D01*
X27328843Y-46020029D01*
X27338188Y-45967675D01*
X27168494Y-45724000D01*
X25404000Y-45724000D01*
X25404000Y-45744000D01*
X25396000Y-45744000D01*
X25396000Y-45724000D01*
X23631506Y-45724000D01*
X23461812Y-45967675D01*
X23471157Y-46020029D01*
X23559066Y-46312526D01*
X23702349Y-46582253D01*
X23895500Y-46818844D01*
X24024983Y-46925665D01*
X23827629Y-47087629D01*
X23621438Y-47338874D01*
X23468223Y-47625517D01*
X23373875Y-47936544D01*
X23342017Y-48260000D01*
X11310000Y-48260000D01*
X11310000Y-44330000D01*
X20263518Y-44330000D01*
X20320000Y-44335563D01*
X20376482Y-44330000D01*
X20376492Y-44330000D01*
X20545439Y-44313360D01*
X20762215Y-44247602D01*
X20961997Y-44140816D01*
X21137107Y-43997107D01*
X21173124Y-43953220D01*
X23336346Y-41790000D01*
X23809270Y-41790000D01*
X23827629Y-41812371D01*
X23946591Y-41910000D01*
X23827629Y-42007629D01*
X23621438Y-42258874D01*
X23468223Y-42545517D01*
X23373875Y-42856544D01*
X23342017Y-43180000D01*
X23373875Y-43503456D01*
X23468223Y-43814483D01*
X23621438Y-44101126D01*
X23827629Y-44352371D01*
X24024983Y-44514335D01*
X23895500Y-44621156D01*
X23702349Y-44857747D01*
X23559066Y-45127474D01*
X23471157Y-45419971D01*
X23461812Y-45472325D01*
X23631506Y-45716000D01*
X25396000Y-45716000D01*
X25396000Y-45696000D01*
X25404000Y-45696000D01*
X25404000Y-45716000D01*
X27168494Y-45716000D01*
X27338188Y-45472325D01*
X27328843Y-45419971D01*
X27240934Y-45127474D01*
X27097651Y-44857747D01*
X26904500Y-44621156D01*
X26775017Y-44514335D01*
X26972371Y-44352371D01*
X27178562Y-44101126D01*
X27331777Y-43814483D01*
X27426125Y-43503456D01*
X27457983Y-43180000D01*
X38582017Y-43180000D01*
X38613875Y-43503456D01*
X38708223Y-43814483D01*
X38861438Y-44101126D01*
X39067629Y-44352371D01*
X39186591Y-44450000D01*
X39067629Y-44547629D01*
X38861438Y-44798874D01*
X38708223Y-45085517D01*
X38613875Y-45396544D01*
X38582017Y-45720000D01*
X38613875Y-46043456D01*
X38708223Y-46354483D01*
X38861438Y-46641126D01*
X38956619Y-46757105D01*
X38836052Y-46856052D01*
X38729832Y-46985481D01*
X38650903Y-47133145D01*
X38602300Y-47293371D01*
X38585888Y-47460000D01*
X38585888Y-49060000D01*
X38602300Y-49226629D01*
X38650903Y-49386855D01*
X38729832Y-49534519D01*
X38836052Y-49663948D01*
X38965481Y-49770168D01*
X39113145Y-49849097D01*
X39273371Y-49897700D01*
X39440000Y-49914112D01*
X41840000Y-49914112D01*
X42006629Y-49897700D01*
X42166855Y-49849097D01*
X42314519Y-49770168D01*
X42443948Y-49663948D01*
X42550168Y-49534519D01*
X42629097Y-49386855D01*
X42677700Y-49226629D01*
X42694112Y-49060000D01*
X42694112Y-47460000D01*
X42677700Y-47293371D01*
X42629097Y-47133145D01*
X42550168Y-46985481D01*
X42443948Y-46856052D01*
X42323381Y-46757105D01*
X42418562Y-46641126D01*
X42571777Y-46354483D01*
X42666125Y-46043456D01*
X42697983Y-45720000D01*
X42666125Y-45396544D01*
X42571777Y-45085517D01*
X42418562Y-44798874D01*
X42212371Y-44547629D01*
X42093409Y-44450000D01*
X42212371Y-44352371D01*
X42418562Y-44101126D01*
X42571777Y-43814483D01*
X42666125Y-43503456D01*
X42697983Y-43180000D01*
X42666125Y-42856544D01*
X42571777Y-42545517D01*
X42418562Y-42258874D01*
X42212371Y-42007629D01*
X42015017Y-41845665D01*
X42144500Y-41738844D01*
X42337651Y-41502253D01*
X42480934Y-41232526D01*
X42568843Y-40940029D01*
X42578188Y-40887675D01*
X42408494Y-40644000D01*
X40644000Y-40644000D01*
X40644000Y-40664000D01*
X40636000Y-40664000D01*
X40636000Y-40644000D01*
X38871506Y-40644000D01*
X38701812Y-40887675D01*
X38711157Y-40940029D01*
X38799066Y-41232526D01*
X38942349Y-41502253D01*
X39135500Y-41738844D01*
X39264983Y-41845665D01*
X39067629Y-42007629D01*
X38861438Y-42258874D01*
X38708223Y-42545517D01*
X38613875Y-42856544D01*
X38582017Y-43180000D01*
X27457983Y-43180000D01*
X27426125Y-42856544D01*
X27331777Y-42545517D01*
X27178562Y-42258874D01*
X26972371Y-42007629D01*
X26853409Y-41910000D01*
X26972371Y-41812371D01*
X26990730Y-41790000D01*
X29153518Y-41790000D01*
X29210000Y-41795563D01*
X29266482Y-41790000D01*
X29266492Y-41790000D01*
X29435439Y-41773360D01*
X29652215Y-41707602D01*
X29851997Y-41600816D01*
X30027107Y-41457107D01*
X30063124Y-41413220D01*
X31253230Y-40223116D01*
X31297107Y-40187107D01*
X31440816Y-40011997D01*
X31547602Y-39812215D01*
X31613360Y-39595439D01*
X31630000Y-39426492D01*
X31630000Y-39426483D01*
X31635563Y-39370001D01*
X31630000Y-39313519D01*
X31630000Y-8946481D01*
X31635563Y-8889999D01*
X31630000Y-8833517D01*
X31630000Y-8833508D01*
X31613360Y-8664561D01*
X31547602Y-8447785D01*
X31440816Y-8248003D01*
X31297107Y-8072893D01*
X31253231Y-8036885D01*
X30063124Y-6846780D01*
X30027107Y-6802893D01*
X29851997Y-6659184D01*
X29652215Y-6552398D01*
X29435439Y-6486640D01*
X29266492Y-6470000D01*
X29266482Y-6470000D01*
X29210000Y-6464437D01*
X29153518Y-6470000D01*
X15476345Y-6470000D01*
X15716345Y-6230000D01*
X30003656Y-6230000D01*
X31870000Y-8096346D01*
X31870001Y-32963508D01*
X31864437Y-33020000D01*
X31870001Y-33076491D01*
X31870001Y-33076492D01*
X31886641Y-33245439D01*
X31952399Y-33462215D01*
X32059185Y-33661997D01*
X32202894Y-33837107D01*
X32246776Y-33873120D01*
X37246880Y-38873225D01*
X37282893Y-38917107D01*
X37326773Y-38953118D01*
X37458002Y-39060816D01*
X37497635Y-39082000D01*
X37657785Y-39167602D01*
X37808802Y-39213412D01*
X37874560Y-39233360D01*
X37894164Y-39235291D01*
X38043508Y-39250000D01*
X38043516Y-39250000D01*
X38100000Y-39255563D01*
X38156484Y-39250000D01*
X39049270Y-39250000D01*
X39067629Y-39272371D01*
X39264983Y-39434335D01*
X39135500Y-39541156D01*
X38942349Y-39777747D01*
X38799066Y-40047474D01*
X38711157Y-40339971D01*
X38701812Y-40392325D01*
X38871506Y-40636000D01*
X40636000Y-40636000D01*
X40636000Y-40616000D01*
X40644000Y-40616000D01*
X40644000Y-40636000D01*
X42408494Y-40636000D01*
X42578188Y-40392325D01*
X42568843Y-40339971D01*
X42480934Y-40047474D01*
X42337651Y-39777747D01*
X42144500Y-39541156D01*
X42015017Y-39434335D01*
X42212371Y-39272371D01*
X42418562Y-39021126D01*
X42571777Y-38734483D01*
X42666125Y-38423456D01*
X42697983Y-38100000D01*
X42666125Y-37776544D01*
X42571777Y-37465517D01*
X42418562Y-37178874D01*
X42212371Y-36927629D01*
X42093409Y-36830000D01*
X42212371Y-36732371D01*
X42418562Y-36481126D01*
X42571777Y-36194483D01*
X42666125Y-35883456D01*
X42697983Y-35560000D01*
X42666125Y-35236544D01*
X42571777Y-34925517D01*
X42418562Y-34638874D01*
X42212371Y-34387629D01*
X42093409Y-34290000D01*
X42212371Y-34192371D01*
X42418562Y-33941126D01*
X42571777Y-33654483D01*
X42666125Y-33343456D01*
X42697983Y-33020000D01*
X42666125Y-32696544D01*
X42571777Y-32385517D01*
X42418562Y-32098874D01*
X42212371Y-31847629D01*
X42093409Y-31750000D01*
X42212371Y-31652371D01*
X42418562Y-31401126D01*
X42571777Y-31114483D01*
X42666125Y-30803456D01*
X42697983Y-30480000D01*
X42666125Y-30156544D01*
X42571777Y-29845517D01*
X42418562Y-29558874D01*
X42212371Y-29307629D01*
X42093409Y-29210000D01*
X42212371Y-29112371D01*
X42418562Y-28861126D01*
X42571777Y-28574483D01*
X42666125Y-28263456D01*
X42697983Y-27940000D01*
X42666125Y-27616544D01*
X42571777Y-27305517D01*
X42418562Y-27018874D01*
X42212371Y-26767629D01*
X42093409Y-26670000D01*
X42212371Y-26572371D01*
X42418562Y-26321126D01*
X42571777Y-26034483D01*
X42666125Y-25723456D01*
X42697983Y-25400000D01*
X42666125Y-25076544D01*
X42571777Y-24765517D01*
X42418562Y-24478874D01*
X42212371Y-24227629D01*
X42093409Y-24130000D01*
X42212371Y-24032371D01*
X42418562Y-23781126D01*
X42571777Y-23494483D01*
X42666125Y-23183456D01*
X42697983Y-22860000D01*
X42666125Y-22536544D01*
X42571777Y-22225517D01*
X42418562Y-21938874D01*
X42212371Y-21687629D01*
X42093409Y-21590000D01*
X42212371Y-21492371D01*
X42418562Y-21241126D01*
X42571777Y-20954483D01*
X42666125Y-20643456D01*
X42697983Y-20320000D01*
X42666125Y-19996544D01*
X42571777Y-19685517D01*
X42418562Y-19398874D01*
X42212371Y-19147629D01*
X42093409Y-19050000D01*
X42212371Y-18952371D01*
X42418562Y-18701126D01*
X42571777Y-18414483D01*
X42666125Y-18103456D01*
X42697983Y-17780000D01*
X42666125Y-17456544D01*
X42571777Y-17145517D01*
X42418562Y-16858874D01*
X42212371Y-16607629D01*
X42093409Y-16510000D01*
X42212371Y-16412371D01*
X42418562Y-16161126D01*
X42571777Y-15874483D01*
X42666125Y-15563456D01*
X42697983Y-15240000D01*
X42666125Y-14916544D01*
X42571777Y-14605517D01*
X42418562Y-14318874D01*
X42212371Y-14067629D01*
X42093409Y-13970000D01*
X42212371Y-13872371D01*
X42418562Y-13621126D01*
X42571777Y-13334483D01*
X42666125Y-13023456D01*
X42697983Y-12700000D01*
X42666125Y-12376544D01*
X42571777Y-12065517D01*
X42418562Y-11778874D01*
X42212371Y-11527629D01*
X41961126Y-11321438D01*
X41674483Y-11168223D01*
X41363456Y-11073875D01*
X41121052Y-11050000D01*
X40158948Y-11050000D01*
X39916544Y-11073875D01*
X39605517Y-11168223D01*
X39318874Y-11321438D01*
X39250000Y-11377961D01*
X39250000Y-7676481D01*
X39255563Y-7619999D01*
X39250000Y-7563517D01*
X39250000Y-7563508D01*
X39233360Y-7394561D01*
X39167602Y-7177785D01*
X39060816Y-6978003D01*
X39030183Y-6940676D01*
X38953118Y-6846772D01*
X38953115Y-6846769D01*
X38917107Y-6802893D01*
X38873231Y-6766885D01*
X36413127Y-4306783D01*
X36413118Y-4306772D01*
X33873124Y-1766780D01*
X33837107Y-1722893D01*
X33661997Y-1579184D01*
X33462215Y-1472398D01*
X33245439Y-1406640D01*
X33076492Y-1390000D01*
X33076482Y-1390000D01*
X33020000Y-1384437D01*
X32963518Y-1390000D01*
X12756481Y-1390000D01*
X12699999Y-1384437D01*
X12643517Y-1390000D01*
X12643508Y-1390000D01*
X12474561Y-1406640D01*
X12257785Y-1472398D01*
X12058003Y-1579184D01*
X12058001Y-1579185D01*
X12058002Y-1579185D01*
X11926772Y-1686882D01*
X11926769Y-1686885D01*
X11882893Y-1722893D01*
X11846884Y-1766770D01*
X4306781Y-9306875D01*
X4262893Y-9342893D01*
X4119184Y-9518004D01*
X4012398Y-9717786D01*
X3946640Y-9934562D01*
X3930000Y-10103509D01*
X3930000Y-10103518D01*
X3924437Y-10160000D01*
X3930000Y-10216482D01*
X3930001Y-20263508D01*
X3924437Y-20320000D01*
X3930001Y-20376492D01*
X3946641Y-20545439D01*
X4012399Y-20762215D01*
X4119185Y-20961997D01*
X4262894Y-21137107D01*
X4306775Y-21173119D01*
X4466879Y-21333224D01*
X4502893Y-21377107D01*
X4678003Y-21520816D01*
X4877785Y-21627602D01*
X5094561Y-21693360D01*
X5263508Y-21710000D01*
X5263517Y-21710000D01*
X5319999Y-21715563D01*
X5376481Y-21710000D01*
X8567757Y-21710000D01*
X8575903Y-21736855D01*
X8654832Y-21884519D01*
X8761052Y-22013948D01*
X8890481Y-22120168D01*
X9038145Y-22199097D01*
X9198371Y-22247700D01*
X9365000Y-22264112D01*
X11065000Y-22264112D01*
X11231629Y-22247700D01*
X11391855Y-22199097D01*
X11539519Y-22120168D01*
X11668948Y-22013948D01*
X11740572Y-21926674D01*
X11805961Y-21980337D01*
X12101291Y-22138194D01*
X12421742Y-22235402D01*
X12671490Y-22260000D01*
X12838510Y-22260000D01*
X13088258Y-22235402D01*
X13408709Y-22138194D01*
X13704039Y-21980337D01*
X13962897Y-21767897D01*
X14087618Y-21615924D01*
X14116929Y-21654446D01*
X14353081Y-21863247D01*
X14625431Y-22021965D01*
X14923512Y-22124500D01*
X15039503Y-22147572D01*
X15291000Y-21978494D01*
X15291000Y-20564000D01*
X15299000Y-20564000D01*
X15299000Y-21978494D01*
X15550497Y-22147572D01*
X15666488Y-22124500D01*
X15964569Y-22021965D01*
X16236919Y-21863247D01*
X16473071Y-21654446D01*
X16663950Y-21403586D01*
X16802222Y-21120308D01*
X16882572Y-20815497D01*
X16713495Y-20564000D01*
X15299000Y-20564000D01*
X15291000Y-20564000D01*
X15271000Y-20564000D01*
X15271000Y-20556000D01*
X15291000Y-20556000D01*
X15291000Y-17784000D01*
X15299000Y-17784000D01*
X15299000Y-20556000D01*
X16713495Y-20556000D01*
X16882572Y-20304503D01*
X16802222Y-19999692D01*
X16663950Y-19716414D01*
X16473071Y-19465554D01*
X16236919Y-19256753D01*
X16088056Y-19170000D01*
X16236919Y-19083247D01*
X16473071Y-18874446D01*
X16663950Y-18623586D01*
X16802222Y-18340308D01*
X16882572Y-18035497D01*
X16713495Y-17784000D01*
X15299000Y-17784000D01*
X15291000Y-17784000D01*
X15271000Y-17784000D01*
X15271000Y-17776000D01*
X15291000Y-17776000D01*
X15291000Y-15244000D01*
X15299000Y-15244000D01*
X15299000Y-17776000D01*
X16713495Y-17776000D01*
X16882572Y-17524503D01*
X16802222Y-17219692D01*
X16663950Y-16936414D01*
X16473071Y-16685554D01*
X16274521Y-16510000D01*
X16473071Y-16334446D01*
X16663950Y-16083586D01*
X16802222Y-15800308D01*
X16882572Y-15495497D01*
X16713495Y-15244000D01*
X15299000Y-15244000D01*
X15291000Y-15244000D01*
X15271000Y-15244000D01*
X15271000Y-15236000D01*
X15291000Y-15236000D01*
X15291000Y-13821506D01*
X15299000Y-13821506D01*
X15299000Y-15236000D01*
X16713495Y-15236000D01*
X16882572Y-14984503D01*
X16802222Y-14679692D01*
X16663950Y-14396414D01*
X16473071Y-14145554D01*
X16236919Y-13936753D01*
X15964569Y-13778035D01*
X15666488Y-13675500D01*
X15550497Y-13652428D01*
X15299000Y-13821506D01*
X15291000Y-13821506D01*
X15039503Y-13652428D01*
X14923512Y-13675500D01*
X14625431Y-13778035D01*
X14353081Y-13936753D01*
X14116929Y-14145554D01*
X14087618Y-14184076D01*
X13962897Y-14032103D01*
X13905000Y-13984588D01*
X13905000Y-10691344D01*
X15826346Y-8770000D01*
X28733655Y-8770000D01*
X29330000Y-9366345D01*
X29330001Y-38893654D01*
X28733655Y-39490000D01*
X26990730Y-39490000D01*
X26972371Y-39467629D01*
X26853409Y-39370000D01*
X26972371Y-39272371D01*
X27178562Y-39021126D01*
X27331777Y-38734483D01*
X27426125Y-38423456D01*
X27457983Y-38100000D01*
X27426125Y-37776544D01*
X27331777Y-37465517D01*
X27178562Y-37178874D01*
X26972371Y-36927629D01*
X26853409Y-36830000D01*
X26972371Y-36732371D01*
X27178562Y-36481126D01*
X27331777Y-36194483D01*
X27426125Y-35883456D01*
X27457983Y-35560000D01*
X27426125Y-35236544D01*
X27331777Y-34925517D01*
X27178562Y-34638874D01*
X26972371Y-34387629D01*
X26853409Y-34290000D01*
X26972371Y-34192371D01*
X26990730Y-34170000D01*
X27883508Y-34170000D01*
X27940000Y-34175564D01*
X27996491Y-34170000D01*
X27996492Y-34170000D01*
X28165439Y-34153360D01*
X28382215Y-34087602D01*
X28581997Y-33980816D01*
X28757107Y-33837107D01*
X28900816Y-33661997D01*
X29007602Y-33462215D01*
X29073360Y-33245439D01*
X29095564Y-33020000D01*
X29090000Y-32963508D01*
X29090000Y-10216492D01*
X29095564Y-10160000D01*
X29073360Y-9934561D01*
X29007602Y-9717785D01*
X28900816Y-9518003D01*
X28757107Y-9342893D01*
X28581997Y-9199184D01*
X28382215Y-9092398D01*
X28165439Y-9026640D01*
X27996492Y-9010000D01*
X27940000Y-9004436D01*
X27883509Y-9010000D01*
X22916481Y-9010000D01*
X22859999Y-9004437D01*
X22803517Y-9010000D01*
X22803508Y-9010000D01*
X22634561Y-9026640D01*
X22417785Y-9092398D01*
X22218003Y-9199184D01*
X22218001Y-9199185D01*
X22218002Y-9199185D01*
X22086772Y-9306882D01*
X22086769Y-9306885D01*
X22042893Y-9342893D01*
X22006884Y-9386770D01*
X19546780Y-11846876D01*
X19502893Y-11882893D01*
X19359184Y-12058004D01*
X19252398Y-12257786D01*
X19186640Y-12474562D01*
X19170000Y-12643509D01*
X19170000Y-12643518D01*
X19164437Y-12700000D01*
X19170000Y-12756482D01*
X19170001Y-35083653D01*
X17303656Y-36950000D01*
X6710730Y-36950000D01*
X6692371Y-36927629D01*
X6573409Y-36830000D01*
X6692371Y-36732371D01*
X6898562Y-36481126D01*
X7051777Y-36194483D01*
X7146125Y-35883456D01*
X7177983Y-35560000D01*
X7146125Y-35236544D01*
X7051777Y-34925517D01*
X6898562Y-34638874D01*
X6692371Y-34387629D01*
X6495017Y-34225665D01*
X6624500Y-34118844D01*
X6817651Y-33882253D01*
X6960934Y-33612526D01*
X7048843Y-33320029D01*
X7058188Y-33267675D01*
X6888494Y-33024000D01*
X5124000Y-33024000D01*
X5124000Y-33044000D01*
X5116000Y-33044000D01*
X5116000Y-33024000D01*
X3351506Y-33024000D01*
X3181812Y-33267675D01*
X3191157Y-33320029D01*
X3279066Y-33612526D01*
X3422349Y-33882253D01*
X3615500Y-34118844D01*
X3744983Y-34225665D01*
X3547629Y-34387629D01*
X3341438Y-34638874D01*
X3188223Y-34925517D01*
X3093875Y-35236544D01*
X3062017Y-35560000D01*
X875000Y-35560000D01*
X875000Y-32772325D01*
X3181812Y-32772325D01*
X3351506Y-33016000D01*
X5116000Y-33016000D01*
X5116000Y-31462000D01*
X5124000Y-31462000D01*
X5124000Y-33016000D01*
X6888494Y-33016000D01*
X7058188Y-32772325D01*
X7048843Y-32719971D01*
X6960934Y-32427474D01*
X6817651Y-32157747D01*
X6624500Y-31921156D01*
X6388904Y-31726793D01*
X6119916Y-31582127D01*
X5827874Y-31492717D01*
X5524000Y-31462000D01*
X5124000Y-31462000D01*
X5116000Y-31462000D01*
X4716000Y-31462000D01*
X4412126Y-31492717D01*
X4120084Y-31582127D01*
X3851096Y-31726793D01*
X3615500Y-31921156D01*
X3422349Y-32157747D01*
X3279066Y-32427474D01*
X3191157Y-32719971D01*
X3181812Y-32772325D01*
X875000Y-32772325D01*
X875000Y-4229596D01*
X1096960Y-4561784D01*
X1438216Y-4903040D01*
X1839490Y-5171162D01*
X2285361Y-5355848D01*
X2758696Y-5450000D01*
X3241304Y-5450000D01*
X3714639Y-5355848D01*
X4160510Y-5171162D01*
X4561784Y-4903040D01*
X4903040Y-4561784D01*
X5171162Y-4160510D01*
X5355848Y-3714639D01*
X5450000Y-3241304D01*
X5450000Y-2758696D01*
X5355848Y-2285361D01*
X5171162Y-1839490D01*
X4903040Y-1438216D01*
X4561784Y-1096960D01*
X4229596Y-875000D01*
X40770404Y-875000D01*
X40438216Y-1096960D01*
M02*
